<?xml version="1.0" encoding="UTF-8" standalone="no"?>
<!-- Created with Inkscape (http://www.inkscape.org/) -->

<svg
   width="210mm"
   height="297mm"
   viewBox="0 0 210 297"
   version="1.1"
   id="svg5"
   inkscape:version="1.1.2 (0a00cf5339, 2022-02-04)"
   sodipodi:docname="sus-logo-scape-3.svg"
   xmlns:inkscape="http://www.inkscape.org/namespaces/inkscape"
   xmlns:sodipodi="http://sodipodi.sourceforge.net/DTD/sodipodi-0.dtd"
   xmlns:xlink="http://www.w3.org/1999/xlink"
   xmlns="http://www.w3.org/2000/svg"
   xmlns:svg="http://www.w3.org/2000/svg">
  <sodipodi:namedview
     id="namedview7"
     pagecolor="#505050"
     bordercolor="#ffffff"
     borderopacity="1"
     inkscape:pageshadow="0"
     inkscape:pageopacity="0"
     inkscape:pagecheckerboard="1"
     inkscape:document-units="mm"
     showgrid="false"
     inkscape:snap-smooth-nodes="false"
     inkscape:zoom="0.7071068"
     inkscape:cx="30.405591"
     inkscape:cy="322.44068"
     inkscape:window-width="3416"
     inkscape:window-height="1377"
     inkscape:window-x="1212"
     inkscape:window-y="12"
     inkscape:window-maximized="1"
     inkscape:current-layer="layer2" />
  <defs
     id="defs2">
    <linearGradient
       id="linearGradient25008"
       inkscape:swatch="solid">
      <stop
         style="stop-color:#bbbbbb;stop-opacity:1;"
         offset="0"
         id="stop25006" />
    </linearGradient>
    <linearGradient
       inkscape:collect="always"
       id="linearGradient16081-3">
      <stop
         style="stop-color:#27892e;stop-opacity:1"
         offset="0"
         id="stop16077" />
      <stop
         style="stop-color:#68ae2d;stop-opacity:1"
         offset="1"
         id="stop16079" />
    </linearGradient>
    <radialGradient
       inkscape:collect="always"
       xlink:href="#linearGradient16081-3"
       id="radialGradient983"
       cx="103.47589"
       cy="66.601105"
       fx="103.47589"
       fy="66.601105"
       r="33.99509"
       gradientTransform="matrix(7.123743,0.0382323,-0.039087,7.2830002,-343.44246,-237.29128)"
       gradientUnits="userSpaceOnUse" />
  </defs>
  <g
     inkscape:groupmode="layer"
     id="layer2"
     inkscape:label="Layer 6"
     style="display:inline">
    <path
       id="path940"
       style="display:inline;fill:url(#radialGradient983);fill-opacity:1;stroke:none;stroke-width:0.999999px;stroke-linecap:butt;stroke-linejoin:miter;stroke-opacity:1"
       d="M 390.70898 14.875 C 260.38567 14.875004 154.41512 107.51448 162.77734 238.21289 C 165.82007 285.76953 187.35739 323.38086 216.94727 351.54688 C 219.83012 382.18461 229.86828 413.53758 255.65039 436.49023 A 6.6673375 6.6673375 0 0 0 256.05469 436.82422 C 295.18788 466.47125 336.69317 488.85156 390.70898 488.85156 C 521.51511 488.85156 627.69727 382.66943 627.69727 251.86328 C 627.69727 121.05715 521.51511 14.874995 390.70898 14.875 z M 390.70898 28.207031 C 514.30925 28.207027 614.35742 128.26302 614.35742 251.86328 C 614.35742 375.46355 514.30925 475.51953 390.70898 475.51953 C 340.46632 475.51953 302.41519 455.15304 264.39648 426.39258 C 245.80619 409.77747 236.56491 388.05194 232.33008 364.93945 C 243.63601 373.73621 255.68102 381.45761 268.16992 387.85938 C 289.16987 398.62391 318.92002 409.09045 348.13086 414.1543 C 358.34446 433.31786 371.93148 449.37859 386.72266 455.38086 C 407.57087 463.84103 426.0322 456.94108 442.78125 446.63477 C 459.5303 436.32841 475.9916 422.71655 496.37305 414.39062 C 531.37272 400.09306 552.73353 386.1104 564.17578 370.56445 C 575.61807 355.01852 575.74147 337.65188 568.95117 321.70312 C 555.37057 289.80564 517.90227 258.98506 488.05273 222.0625 C 476.52245 207.80007 477.91955 192.66378 485.37305 179.09961 C 486.14044 177.70313 487.24105 176.49431 488.14258 175.16406 C 494.61143 192.51357 501.9924 209.77354 516.45117 222.17969 C 529.19854 233.11738 543.96718 237.11367 556.75 234.25781 C 569.53282 231.40195 579.95008 221.26288 582.96289 206.95117 C 588.94792 178.52049 580.06265 158.70564 565.29688 148.40625 C 550.53109 138.10686 531.49833 136.63877 516.28906 139.50391 C 508.07056 141.05212 500.04491 144.9825 492.85156 150.47266 C 485.13785 129.38852 476.08083 108.07632 456.01562 95.824219 C 420.15812 73.929166 366.73517 65.545101 329.9707 88.871094 C 305.98073 104.09204 285.3559 128.51998 271.91992 155.625 C 270.58189 158.32428 269.65692 161.14363 268.46484 163.89258 C 266.29713 165.97526 263.88198 167.69972 261.86523 169.99805 C 242.20627 192.40189 229.59186 224.42222 222.17969 264.75977 A 6.6673375 6.6673375 0 0 0 222.15039 264.93555 C 219.38086 282.683 215.95209 306.44868 216.06055 331.57227 C 193.96601 306.87859 178.54369 275.74066 176.08789 237.35742 C 168.20614 114.16858 266.62594 28.207035 390.70898 28.207031 z M 382.10938 88.669922 C 405.53887 88.692728 430.33947 95.761929 449.07031 107.19922 C 465.79691 117.41272 473.98247 137.18254 481.97852 159.39648 C 482.09077 159.70837 482.2354 160.0291 482.34766 160.3418 C 479.07576 164.12689 476.12577 168.24399 473.68945 172.67773 C 464.34914 189.67562 462.72921 211.94208 477.68945 230.44727 C 508.59934 268.68141 545.51853 300.70563 556.68359 326.92969 C 562.26614 340.04172 562.35375 350.55218 553.44336 362.6582 C 544.53297 374.76423 525.22525 388.20129 491.33203 402.04688 C 468.62282 411.32368 451.31387 425.73303 435.79688 435.28125 C 420.27987 444.82947 407.97246 449.62063 391.73438 443.03125 C 384.41007 440.05903 374.61345 429.71004 365.90625 416.74414 C 382.41345 418.17001 398.16616 417.41184 411.41602 412.5 C 425.04242 407.44855 436.10504 397.40844 440.35156 382.32227 C 443.24411 372.04611 439.88062 361.58491 433.83398 352.68359 C 427.78731 343.78227 418.92463 335.95787 408.95703 329.80078 C 398.9894 323.64369 387.91668 319.16307 377.11133 317.53125 C 366.30597 315.89943 355.37472 317.1134 347 323.61523 C 336.82225 331.51687 332.46306 343.76849 332.02344 356.57422 C 331.58381 369.37995 334.74455 383.16853 339.89844 396.42969 C 340.31694 397.50655 340.91224 398.49676 341.35352 399.56641 C 316.66407 394.22786 291.72258 384.95153 274.25195 375.99609 C 258.26913 367.80332 243.26518 357.44569 229.79102 345.33984 C 227.86132 316.85887 232.00932 288.22634 235.30469 267.10547 C 240.25527 240.19428 247.74271 218.00872 257.53125 200.15234 C 255.46089 213.46558 255.38308 226.67997 258.26367 239.12109 C 266.28393 273.76012 294.982 306.8206 341.87109 306.82031 A 6.6673375 6.6673375 0 0 0 341.87695 306.82031 C 358.44977 306.80104 374.51306 301.77268 388.36914 292.81055 L 489.72266 367.61133 A 6.6673375 6.6673375 0 0 0 499.04492 366.20117 L 524.24023 332.05859 A 6.6673375 6.6673375 0 0 0 522.83789 322.74414 L 422.73828 248.86523 C 425.88447 239.82835 427.8632 230.4251 427.87695 220.83008 A 6.6673375 6.6673375 0 0 0 427.86914 220.61523 C 426.39414 172.66926 383.51627 134.13653 341.76758 134.81641 C 323.20377 135.11873 306.87343 139.38597 292.45508 146.66406 C 304.44961 127.67943 320.05617 110.9524 337.11523 100.12891 C 348.49206 92.91064 362.58666 89.354157 377.44336 88.759766 C 378.99093 88.69785 380.54741 88.668401 382.10938 88.669922 z M 529.7793 151.63477 C 532.76395 151.64553 535.80733 151.86891 538.8125 152.32617 C 545.68141 153.37137 552.3437 155.63468 557.66406 159.3457 C 568.30476 166.76776 575.16176 179.29563 569.91797 204.20508 C 567.85892 213.98607 561.8962 219.44272 553.8418 221.24219 C 545.7874 223.04166 535.26047 220.75629 525.13281 212.06641 C 512.16257 200.93748 505.01934 182.90478 498.07812 163.87891 C 504.69011 158.10569 512.09165 153.86199 518.76172 152.60547 C 521.8183 152.02967 525.11436 151.6994 528.50391 151.64258 C 528.9276 151.63547 529.35292 151.63323 529.7793 151.63477 z M 341.31836 161.94141 A 59.2746 59.2746 0 0 1 400.59375 221.2168 A 59.2746 59.2746 0 0 1 341.31836 280.49219 A 59.2746 59.2746 0 0 1 282.04492 221.2168 A 59.2746 59.2746 0 0 1 341.31836 161.94141 z M 369.04688 330.21875 C 370.96599 330.22976 372.99628 330.39532 375.125 330.7168 C 383.63989 332.00272 393.31896 335.80646 401.95117 341.13867 C 410.58339 346.47088 418.16108 353.34188 422.80469 360.17773 C 427.44829 367.01359 429.03148 373.32767 427.51562 378.71289 C 424.41344 389.73392 417.49925 396.02016 406.7793 399.99414 C 396.05939 403.96812 381.57544 404.92626 365.78711 403.44336 C 363.07021 403.18824 360.1883 402.50359 357.4082 402.11328 C 355.65239 398.62391 353.73288 395.21101 352.33008 391.60156 C 347.65514 379.57272 344.99692 367.24969 345.34766 357.0332 C 345.6984 346.81671 348.73967 339.14043 355.17969 334.14062 C 357.41811 332.40281 360.27671 331.22595 363.63867 330.64258 C 365.31965 330.35089 367.12775 330.20774 369.04688 330.21875 z "
       transform="scale(0.26458333)" />
  </g>
  <g
     inkscape:label="Layer 1"
     inkscape:groupmode="layer"
     id="layer1"
     style="display:none" />
  <g
     inkscape:groupmode="layer"
     id="g1611"
     inkscape:label="Layer 2 copy copy"
     style="display:inline" />
</svg>
